<?xml version="1.0" encoding="UTF-8"?>
<svg width="156px" height="120px" viewBox="0 0 156 120" version="1.1" xmlns="http://www.w3.org/2000/svg" xmlns:xlink="http://www.w3.org/1999/xlink">
    <!-- Generator: Sketch 55.2 (78181) - https://sketchapp.com -->
    <title>Group 13 Copy</title>
    <desc>Created with Sketch.</desc>
    <g id="ad" stroke="none" stroke-width="1" fill="none" fill-rule="evenodd">
        <g id="adsWomens16x9" transform="translate(-1643.000000, -100.000000)">
            <g id="Group-13-Copy" transform="translate(1643.000000, 100.000000)">
                <path d="M50.456385,119.61123 C48.8828861,119.61123 47.3272003,119.497938 45.7774522,119.277317 C32.2156725,117.333466 24.9003867,107.435329 24.5975624,107.017938 L31.7822181,101.728994 C31.8356576,101.806509 37.3518106,109.092969 47.1728193,110.440547 C55.4203289,111.549615 64.4872456,108.341665 74.1419977,100.846509 L79.5928357,107.924273 C69.5877573,115.693714 59.8083128,119.61123 50.456385,119.61123" id="Fill-1" fill="#FFBB45"></path>
                <path d="M36.8381968,40.5239255 C37.9960545,34.6983354 35.882222,32.0389565 31.8445642,32.0389565 C27.8069065,32.0389565 24.6302199,34.6983354 23.4723622,40.5239255 L16.1392633,76.7177143 C14.9754678,82.5492671 17.0714872,85.3398261 21.1091449,85.3398261 C25.1408649,85.3398261 28.3413024,82.5492671 29.5110356,76.7177143 L36.8381968,40.5239255 Z M33.8158912,22.1587081 C44.6581898,22.1587081 49.9308957,28.6163478 47.6804953,39.8918758 L40.0980116,77.3557267 C37.829798,88.756472 31.7733115,95.0888944 21.5544748,95.0888944 C17.8968319,95.0888944 14.0432439,92.9363478 13.4850971,90.0265342 L9.31680925,111.295602 L0.036134224,104.056845 L12.8735107,39.8918758 C15.1239111,28.6163478 22.967655,22.1587081 33.8158912,22.1587081 Z M59.3659518,75.5836025 C58.053713,82.1664596 59.8647213,84.4501863 66.449666,84.3249689 L64.5080277,94.08 C50.8096801,94.4616149 45.8694871,89.5185093 48.3930232,76.8536646 L63.6826829,0.745341615 L74.4002891,0.745341615 L59.3659518,75.5836025 Z M101.164616,40.5239255 C102.322474,34.6983354 100.202703,32.0389565 96.1709832,32.0389565 C92.1333255,32.0389565 88.9566389,34.6983354 87.7987812,40.5239255 L80.4656823,76.7177143 C79.3018868,82.5492671 81.3919684,85.3398261 85.4296262,85.3398261 C89.4672839,85.3398261 92.6736591,82.5492671 93.8315169,76.7177143 L101.164616,40.5239255 Z M105.113208,73.9152298 C105.113208,73.9152298 103.260635,82.0901366 107.755498,87.999205 L96.8716356,95.0888944 L91.6108051,89.7760994 C89.6929177,93.067528 84.9961717,95.0888944 81.0891441,95.0888944 C70.8703074,95.0888944 67.3492324,88.756472 69.6233837,77.3557267 L77.1999297,39.8918758 C79.4503301,28.6163478 87.3000117,22.1587081 98.1423102,22.1587081 C108.990547,22.1587081 114.263252,28.6163478 112.012852,39.8918758 L105.113208,73.9152298 Z M143.798719,40.5239255 C144.956576,34.6983354 142.866495,31.9137391 138.834775,31.9137391 C134.797117,31.9137391 131.590742,34.6983354 130.432884,40.5239255 L123.099785,76.7177143 C121.93599,82.5492671 124.05576,85.208646 128.08748,85.208646 C132.125138,85.208646 135.301824,82.5492671 136.471557,76.7177143 L143.798719,40.5239255 Z M143.175257,22.1587081 C153.388156,22.1587081 156.915169,28.4851677 154.641017,39.8918758 L147.058534,77.3557267 C144.814071,88.6312547 136.964389,95.0888944 126.122091,95.0888944 C115.273854,95.0888944 110.007086,88.6312547 112.251549,77.3557267 L127.636212,0.746534161 L138.359756,0.746534161 L133.081113,27.2210683 C134.797117,24.3052919 139.511676,22.1587081 143.175257,22.1587081 Z" id="Combined-Shape" fill="#2A2A2A"></path>
            </g>
        </g>
    </g>
</svg>